<svg width="25" height="25" viewBox="0 0 25 25" fill="none" xmlns="http://www.w3.org/2000/svg">
<path d="M11.1468 3.2793L2.15307 18.8564C2.01593 19.0939 1.94373 19.3633 1.94373 19.6376C1.94373 19.9119 2.01592 20.1813 2.15306 20.4189C2.29019 20.6564 2.48743 20.8536 2.72496 20.9908C2.96248 21.1279 3.23192 21.2001 3.50619 21.2001L21.4937 21.2001C21.768 21.2001 22.0374 21.1279 22.2749 20.9908C22.5125 20.8536 22.7097 20.6564 22.8468 20.4189C22.984 20.1813 23.0562 19.9119 23.0562 19.6376C23.0562 19.3633 22.984 19.0939 22.8468 18.8564L13.8531 3.2793C13.252 2.23763 11.7489 2.23763 11.1468 3.2793ZM12.4999 15.6251C12.7762 15.6251 13.0412 15.7349 13.2365 15.9302C13.4319 16.1256 13.5416 16.3905 13.5416 16.6668C13.5416 16.9431 13.4319 17.208 13.2365 17.4034C13.0412 17.5987 12.7762 17.7085 12.4999 17.7085C12.2237 17.7085 11.9587 17.5987 11.7634 17.4034C11.568 17.208 11.4583 16.9431 11.4583 16.6668C11.4583 16.3905 11.568 16.1256 11.7634 15.9302C11.9587 15.7349 12.2237 15.6251 12.4999 15.6251ZM12.4999 8.33346C12.7551 8.3335 13.0013 8.42717 13.192 8.59671C13.3827 8.76625 13.5045 8.99987 13.5343 9.25326L13.5416 9.37513L13.5416 13.5418C13.5413 13.8073 13.4397 14.0627 13.2574 14.2557C13.0751 14.4488 12.826 14.565 12.561 14.5805C12.2959 14.5961 12.035 14.5098 11.8314 14.3394C11.6278 14.169 11.4969 13.9273 11.4656 13.6637L11.4583 13.5418L11.4583 9.37513C11.4583 9.09886 11.568 8.83391 11.7634 8.63856C11.9587 8.44321 12.2237 8.33346 12.4999 8.33346Z" fill="#ED3237"/>
</svg>
