<svg width="21" height="21" viewBox="0 0 21 21" fill="none" xmlns="http://www.w3.org/2000/svg">
<path d="M7.33637 2.16948C7.79583 2.03095 8.28888 2.05396 8.73344 2.23469C9.178 2.41542 9.54725 2.74295 9.77972 3.16278L9.85742 3.31923L10.5525 4.86378C10.7631 5.33267 10.8313 5.85306 10.7488 6.36039C10.6663 6.86771 10.4367 7.33966 10.0884 7.71768L9.94877 7.85628L8.85362 8.87793C8.65622 9.06483 8.80427 9.78828 9.51827 11.0252C10.1609 12.1382 10.6838 12.6579 10.941 12.6863H10.9862L11.0418 12.6758L13.1943 12.0174C13.4836 11.9287 13.7923 11.9252 14.0836 12.0073C14.3748 12.0894 14.6362 12.2537 14.8365 12.4805L14.9321 12.6012L16.3569 14.5752C16.6362 14.9621 16.7753 15.4326 16.7515 15.9092C16.7276 16.3858 16.5422 16.84 16.2257 17.1971L16.0976 17.3294L15.5285 17.8691C15.0174 18.353 14.3782 18.6801 13.6867 18.8113C12.9952 18.9425 12.2805 18.8724 11.6277 18.6093C9.59597 17.7903 7.75007 15.9192 6.07322 13.0149C4.39322 10.1033 3.69497 7.56543 4.00682 5.39193C4.10119 4.73491 4.37174 4.11571 4.78974 3.6001C5.20774 3.08449 5.75758 2.69171 6.38087 2.46348L6.58352 2.39628L7.33637 2.16948Z" fill="#999999"/>
</svg>
