<svg width="30" height="30" viewBox="0 0 30 30" fill="none" xmlns="http://www.w3.org/2000/svg">
<path d="M24.375 23.75H18.125C17.9592 23.75 17.8003 23.6842 17.6831 23.5669C17.5658 23.4497 17.5 23.2908 17.5 23.125C17.5 22.9592 17.5658 22.8003 17.6831 22.6831C17.8003 22.5658 17.9592 22.5 18.125 22.5H24.375C25.4088 22.5 26.25 21.6588 26.25 20.625V19.375C26.25 19.2092 26.3158 19.0503 26.4331 18.9331C26.5503 18.8158 26.7092 18.75 26.875 18.75H28.1137C28.2795 18.75 28.4385 18.6842 28.5557 18.5669C28.6729 18.4497 28.7387 18.2908 28.7387 18.125V10.625C28.7387 10.4592 28.6729 10.3003 28.5557 10.1831C28.4385 10.0658 28.2795 10 28.1137 10H26.875C26.7092 10 26.5503 9.93415 26.4331 9.81694C26.3158 9.69973 26.25 9.54076 26.25 9.375V8.125C26.25 7.09125 25.4088 6.25 24.375 6.25H20.625C20.4592 6.25 20.3003 6.18415 20.1831 6.06694C20.0658 5.94973 20 5.79076 20 5.625C20 5.45924 20.0658 5.30027 20.1831 5.18306C20.3003 5.06585 20.4592 5 20.625 5H24.375C26.0975 5 27.5 6.4025 27.5 8.125V8.75H28.1137C29.1475 8.75 29.9887 9.59125 29.9887 10.625V18.125C29.9887 19.1588 29.1475 20 28.1137 20H27.5V20.625C27.5 22.3475 26.0975 23.75 24.375 23.75ZM8.125 23.75H3.125C2.2965 23.749 1.50222 23.4194 0.916387 22.8336C0.330551 22.2478 0.000992411 21.4535 0 20.625L0 8.125C0 6.4025 1.4025 5 3.125 5H11.875C12.0408 5 12.1997 5.06585 12.3169 5.18306C12.4342 5.30027 12.5 5.45924 12.5 5.625C12.5 5.79076 12.4342 5.94973 12.3169 6.06694C12.1997 6.18415 12.0408 6.25 11.875 6.25H3.125C2.09125 6.25 1.25 7.09125 1.25 8.125V20.625C1.25 21.6588 2.09125 22.5 3.125 22.5H8.125C8.29076 22.5 8.44973 22.5658 8.56694 22.6831C8.68415 22.8003 8.75 22.9592 8.75 23.125C8.75 23.2908 8.68415 23.4497 8.56694 23.5669C8.44973 23.6842 8.29076 23.75 8.125 23.75Z" fill="#3EC153"/>
<path d="M11.629 26.2509C11.5301 26.2508 11.4327 26.2272 11.3448 26.1821C11.2568 26.1371 11.1808 26.0718 11.123 25.9916C11.0652 25.9115 11.0272 25.8187 11.0121 25.7211C10.9971 25.6234 11.0054 25.5235 11.0365 25.4297L13.654 17.5009H8.75022C8.6361 17.501 8.52414 17.4698 8.42649 17.4107C8.32884 17.3516 8.24924 17.2669 8.1963 17.1658C8.14336 17.0647 8.11912 16.9511 8.1262 16.8372C8.13329 16.7233 8.17142 16.6135 8.23647 16.5197L16.894 4.01969C16.9773 3.90166 17.0985 3.81571 17.2375 3.77614C17.3764 3.73657 17.5247 3.74576 17.6577 3.80219C17.9315 3.92219 18.0827 4.21844 18.019 4.50969L16.259 12.5009H21.2502C21.3667 12.5015 21.4808 12.5345 21.5796 12.5963C21.6784 12.6581 21.7579 12.7462 21.8094 12.8508C21.8608 12.9553 21.8821 13.0721 21.8707 13.1881C21.8594 13.3041 21.8159 13.4146 21.7452 13.5072L12.124 26.0072C12.0658 26.0832 11.9909 26.1448 11.905 26.187C11.8192 26.2293 11.7247 26.2512 11.629 26.2509ZM9.94397 16.2509H14.519C14.6179 16.2508 14.7154 16.2742 14.8035 16.3192C14.8916 16.3642 14.9678 16.4295 15.0257 16.5097C15.0835 16.59 15.1215 16.6828 15.1364 16.7806C15.1514 16.8784 15.1428 16.9784 15.1115 17.0722L13.374 22.3334L19.9802 13.7509H15.4815C15.388 13.7506 15.2958 13.7294 15.2115 13.6889C15.1273 13.6484 15.0532 13.5896 14.9946 13.5167C14.936 13.4439 14.8944 13.3589 14.8729 13.2679C14.8514 13.1769 14.8505 13.0823 14.8702 12.9909L16.1152 7.33969L9.94397 16.2509Z" fill="#3EC153"/>
</svg>
