<svg width="30" height="30" viewBox="0 0 30 30" fill="none" xmlns="http://www.w3.org/2000/svg">
<g clip-path="url(#clip0_137_2820)">
<g clip-path="url(#clip1_137_2820)">
<path d="M19.4191 14.3488L15.5951 21.9899C15.5632 22.0528 15.5109 22.103 15.4469 22.1325C15.3828 22.162 15.3107 22.1691 15.2421 22.1525C15.1735 22.136 15.1126 22.0968 15.069 22.0413C15.0255 21.9858 15.0019 21.9173 15.0021 21.8468V17.3139C15.0021 17.1331 14.9303 16.9597 14.8025 16.8319C14.6746 16.7041 14.5013 16.6323 14.3205 16.6323H11.1986C11.0818 16.6331 10.9668 16.6039 10.8646 16.5475C10.7623 16.4911 10.6763 16.4093 10.6147 16.3101C10.5531 16.2109 10.5181 16.0975 10.5129 15.9809C10.5077 15.8642 10.5326 15.7482 10.5851 15.6439L14.4909 7.84601C14.5197 7.79374 14.5649 7.75238 14.6196 7.72828C14.6742 7.70418 14.7352 7.69867 14.7932 7.71261C14.8513 7.72654 14.9032 7.75914 14.9409 7.8054C14.9786 7.85166 15.0001 7.90903 15.0021 7.9687V12.6788C15.0021 12.8596 15.0739 13.0329 15.2018 13.1608C15.3296 13.2886 15.503 13.3604 15.6837 13.3604H18.8056C18.9224 13.3596 19.0374 13.3888 19.1397 13.4452C19.2419 13.5016 19.328 13.5834 19.3895 13.6826C19.4511 13.7818 19.4862 13.8952 19.4914 14.0118C19.4965 14.1285 19.4716 14.2445 19.4191 14.3488Z" fill="#25B743"/>
<path d="M19.4194 14.3478L15.5955 21.9889C15.5635 22.0517 15.5112 22.102 15.4472 22.1315C15.3831 22.161 15.311 22.1681 15.2424 22.1515C15.1739 22.135 15.1129 22.0958 15.0693 22.0403C15.0258 21.9848 15.0022 21.9163 15.0024 21.8457V20.4484L18.5469 13.3594H18.806C18.9227 13.3586 19.0377 13.3878 19.14 13.4442C19.2422 13.5006 19.3283 13.5823 19.3899 13.6815C19.4514 13.7808 19.4865 13.8941 19.4917 14.0108C19.4969 14.1274 19.472 14.2435 19.4194 14.3478Z" fill="#1CA032"/>
<path d="M15.0027 1.22449e-06C11.2071 -0.00153281 7.55262 1.43834 4.77818 4.02845V3.40817C4.77818 3.22739 4.70637 3.05401 4.57854 2.92618C4.45071 2.79835 4.27733 2.72653 4.09655 2.72653C3.91577 2.72653 3.74239 2.79835 3.61456 2.92618C3.48673 3.05401 3.41492 3.22739 3.41492 3.40817V6.1347C3.41492 6.23831 3.43854 6.34056 3.48399 6.43367C3.52944 6.52679 3.59552 6.60831 3.6772 6.67206C3.75888 6.7358 3.85402 6.78008 3.95539 6.80154C4.05676 6.823 4.16168 6.82106 4.26219 6.79589L6.98872 6.11425C7.16295 6.06928 7.31232 5.95724 7.40427 5.80257C7.49622 5.64791 7.52329 5.46315 7.47956 5.28861C7.43584 5.11407 7.32487 4.96389 7.17086 4.87084C7.01685 4.77779 6.8323 4.7494 6.65745 4.79188L5.70316 5.03046C7.97746 2.90575 10.9103 1.62322 14.0144 1.39599C17.1184 1.16875 20.2068 2.0105 22.7663 3.78134C25.3258 5.55219 27.2023 8.14551 28.0839 11.1304C28.9656 14.1153 28.7994 17.312 27.6129 20.1893C27.5776 20.2723 27.559 20.3614 27.5584 20.4516C27.5578 20.5418 27.575 20.6312 27.6092 20.7147C27.6434 20.7982 27.6938 20.874 27.7575 20.9379C27.8212 21.0017 27.8969 21.0523 27.9803 21.0866C28.0637 21.121 28.1531 21.1385 28.2432 21.138C28.3334 21.1376 28.4226 21.1193 28.5057 21.0841C28.5887 21.049 28.664 20.9977 28.7271 20.9333C28.7902 20.8688 28.8399 20.7925 28.8732 20.7087C29.8099 18.4302 30.171 15.9562 29.9249 13.5051C29.6788 11.0539 28.8329 8.70112 27.462 6.65436C26.0911 4.6076 24.2374 2.92987 22.0644 1.76932C19.8914 0.608778 17.4661 0.0011178 15.0027 1.22449e-06ZM25.7432 23.196L23.0166 23.8776C22.8424 23.9226 22.693 24.0346 22.6011 24.1893C22.5091 24.344 22.4821 24.5287 22.5258 24.7033C22.5695 24.8778 22.6805 25.028 22.8345 25.121C22.9885 25.2141 23.1731 25.2425 23.3479 25.2L24.3022 24.9614C22.0279 27.0861 19.095 28.3686 15.991 28.5959C12.8869 28.8231 9.79856 27.9814 7.23908 26.2105C4.6796 24.4397 2.80311 21.8464 1.92143 18.8615C1.03976 15.8766 1.20597 12.6799 2.39247 9.80257C2.42781 9.7196 2.44634 9.63043 2.44697 9.54024C2.44761 9.45006 2.43034 9.36064 2.39617 9.27718C2.36199 9.19371 2.3116 9.11786 2.2479 9.05401C2.1842 8.99017 2.10846 8.93959 2.02508 8.90523C1.94169 8.87087 1.85231 8.85339 1.76213 8.85382C1.67194 8.85425 1.58273 8.87257 1.49968 8.90772C1.41662 8.94287 1.34136 8.99416 1.27827 9.05861C1.21518 9.12305 1.16551 9.19938 1.13213 9.28317C-0.17256 12.4476 -0.355435 15.9631 0.613876 19.2459C1.58319 22.5286 3.64634 25.3809 6.46067 27.3291C9.27499 29.2773 12.6711 30.2041 16.0849 29.9555C19.4987 29.707 22.7247 28.298 25.2272 25.9627V26.5837C25.2272 26.7645 25.299 26.9379 25.4268 27.0657C25.5547 27.1935 25.728 27.2653 25.9088 27.2653C26.0896 27.2653 26.263 27.1935 26.3908 27.0657C26.5186 26.9379 26.5905 26.7645 26.5905 26.5837V23.8572C26.5904 23.7536 26.5668 23.6513 26.5214 23.5582C26.4759 23.4651 26.4099 23.3836 26.3282 23.3198C26.2465 23.2561 26.1513 23.2118 26.05 23.1903C25.9486 23.1689 25.8437 23.1708 25.7432 23.196Z" fill="#3EC153"/>
</g>
</g>
<defs>
<clipPath id="clip0_137_2820">
<rect width="30" height="30" fill="white"/>
</clipPath>
<clipPath id="clip1_137_2820">
<rect width="30" height="30" fill="white"/>
</clipPath>
</defs>
</svg>
