<svg width="21" height="16" viewBox="0 0 21 16" fill="none" xmlns="http://www.w3.org/2000/svg">
<rect width="2" height="22.547" transform="translate(1 1.54614) rotate(-50.6356)" fill="#3AC34B" fill-opacity="0.3"/>
<path d="M10.5 1C5.72727 1 1.65136 3.90267 0 8C1.65136 12.0973 5.72727 15 10.5 15C15.2727 15 19.3486 12.0973 21 8C19.3486 3.90267 15.2727 1 10.5 1ZM10.5 12.6667C7.86545 12.6667 5.72727 10.576 5.72727 8C5.72727 5.424 7.86545 3.33333 10.5 3.33333C13.1345 3.33333 15.2727 5.424 15.2727 8C15.2727 10.576 13.1345 12.6667 10.5 12.6667ZM10.5 5.2C8.91545 5.2 7.63636 6.45067 7.63636 8C7.63636 9.54933 8.91545 10.8 10.5 10.8C12.0845 10.8 13.3636 9.54933 13.3636 8C13.3636 6.45067 12.0845 5.2 10.5 5.2Z" fill="#3AC34B" fill-opacity="0.3"/>
</svg>
