<svg width="14" height="19" viewBox="0 0 14 19" fill="none" xmlns="http://www.w3.org/2000/svg">
<path d="M6.66667 14C7.10869 14 7.53262 13.8156 7.84518 13.4874C8.15774 13.1592 8.33333 12.7141 8.33333 12.25C8.33333 11.7859 8.15774 11.3408 7.84518 11.0126C7.53262 10.6844 7.10869 10.5 6.66667 10.5C6.22464 10.5 5.80072 10.6844 5.48816 11.0126C5.17559 11.3408 5 11.7859 5 12.25C5 12.7141 5.17559 13.1592 5.48816 13.4874C5.80072 13.8156 6.22464 14 6.66667 14ZM11.6667 6.125C12.1087 6.125 12.5326 6.30937 12.8452 6.63756C13.1577 6.96575 13.3333 7.41087 13.3333 7.875V16.625C13.3333 17.0891 13.1577 17.5342 12.8452 17.8624C12.5326 18.1906 12.1087 18.375 11.6667 18.375H1.66667C1.22464 18.375 0.800716 18.1906 0.488155 17.8624C0.175595 17.5342 0 17.0891 0 16.625V7.875C0 7.41087 0.175595 6.96575 0.488155 6.63756C0.800716 6.30937 1.22464 6.125 1.66667 6.125H2.5V4.375C2.5 3.21468 2.93899 2.10188 3.72039 1.28141C4.50179 0.460936 5.5616 0 6.66667 0C7.21384 0 7.75566 0.113163 8.26118 0.333027C8.7667 0.552891 9.22603 0.875152 9.61294 1.28141C9.99986 1.68766 10.3068 2.16996 10.5162 2.70076C10.7256 3.23156 10.8333 3.80047 10.8333 4.375V6.125H11.6667ZM6.66667 1.75C6.00363 1.75 5.36774 2.02656 4.8989 2.51884C4.43006 3.01113 4.16667 3.67881 4.16667 4.375V6.125H9.16667V4.375C9.16667 3.67881 8.90327 3.01113 8.43443 2.51884C7.96559 2.02656 7.32971 1.75 6.66667 1.75Z" fill="#999999"/>
</svg>
