<svg width="24" height="25" viewBox="0 0 24 25" fill="none" xmlns="http://www.w3.org/2000/svg">
<path d="M9.6416 10.8467C8.97599 10.8467 8.43643 11.3862 8.43643 12.0518C8.43643 12.7175 8.97599 13.257 9.6416 13.257V10.8467Z" fill="#3B82F6"/>
<path d="M10.8462 0C14.1742 0 16.8721 2.69787 16.8721 6.02585C16.8721 6.69144 16.3325 7.23102 15.6669 7.23102C15.0013 7.23102 14.4617 6.69144 14.4617 6.02585C14.4617 4.02906 12.843 2.41034 10.8462 2.41034H6.02556C4.02871 2.41034 2.41005 4.02906 2.41005 6.02585V18.0775C2.41005 20.0744 4.02871 21.6931 6.02556 21.6931H10.8462C12.843 21.6931 14.4617 20.0744 14.4617 18.0775C14.4617 17.4119 15.0013 16.8724 15.6669 16.8724C16.3325 16.8724 16.8721 17.4119 16.8721 18.0775C16.8721 21.4055 14.1742 24.1034 10.8462 24.1034H6.02556C2.6976 24.1034 -0.000292013 21.4055 -0.000292013 18.0775V6.02585C-0.000292013 2.69787 2.6976 0 6.02556 0H10.8462Z" fill="#3B82F6"/>
<path d="M19.6227 10.8466C19.5154 10.7142 19.4126 10.5859 19.3153 10.4633C19.0195 10.0901 18.769 9.76238 18.5921 9.52748C18.5036 9.40993 18.4333 9.31534 18.3848 9.24961L18.3287 9.17332L18.3136 9.15274L18.3083 9.14543C18.3083 9.14536 18.3077 9.14459 19.2827 8.43621L18.3083 9.14543C17.9171 8.60695 18.0358 7.85244 18.5743 7.46121C19.1128 7.07 19.8664 7.18935 20.2576 7.72776L20.261 7.73242L20.2734 7.74929L20.3237 7.81771C20.3682 7.878 20.4341 7.9666 20.5177 8.07768C20.6851 8.30005 20.9231 8.61147 21.204 8.96573C21.772 9.682 22.4912 10.543 23.1478 11.1995L24 12.0517L23.1478 12.9039C22.4912 13.5605 21.772 14.4214 21.204 15.1377C20.9231 15.492 20.6851 15.8034 20.5177 16.0258C20.4341 16.1369 20.3682 16.2255 20.3237 16.2857L20.2734 16.3542L20.261 16.371L20.2582 16.3749C19.867 16.9133 19.1128 17.0334 18.5743 16.6422C18.0358 16.251 17.9165 15.4973 18.3077 14.9588L19.2827 15.6672C18.3077 14.9588 18.3076 14.959 18.3077 14.9588L18.3136 14.9508L18.3287 14.9301L18.3848 14.8539C18.4333 14.7881 18.5036 14.6936 18.5921 14.5759C18.769 14.3411 19.0195 14.0134 19.3153 13.6401C19.4126 13.5176 19.5154 13.3892 19.6227 13.2569H9.64136V10.8466H19.6227Z" fill="#3B82F6"/>
</svg>
