<svg width="13" height="17" viewBox="0 0 13 17" fill="none" xmlns="http://www.w3.org/2000/svg">
<path d="M3.40186 0.0893998C3.86132 -0.0491299 4.35437 -0.0261154 4.79893 0.154612C5.24349 0.335339 5.61274 0.662877 5.84521 1.0827L5.92291 1.23915L6.61801 2.7837C6.82856 3.25259 6.89681 3.77298 6.81431 4.28031C6.73181 4.78764 6.50218 5.25958 6.15391 5.6376L6.01426 5.7762L4.91911 6.79785C4.72171 6.98475 4.86976 7.7082 5.58376 8.9451C6.22636 10.0581 6.74926 10.5778 7.00651 10.6062H7.05166L7.10731 10.5957L9.25981 9.93735C9.5491 9.84863 9.85782 9.84512 10.149 9.92724C10.4403 10.0094 10.7017 10.1736 10.902 10.4004L10.9976 10.5212L12.4224 12.4951C12.7017 12.8821 12.8408 13.3525 12.817 13.8291C12.7931 14.3057 12.6077 14.7599 12.2912 15.117L12.1631 15.2493L11.594 15.789C11.0829 16.273 10.4437 16.6 9.75216 16.7312C9.06066 16.8625 8.34603 16.7924 7.69321 16.5292C5.66146 15.7102 3.81556 13.8392 2.13871 10.9349C0.458713 8.0232 -0.239537 5.48535 0.0723131 3.31185C0.16668 2.65483 0.43723 2.03563 0.85523 1.52002C1.27323 1.00441 1.82307 0.611629 2.44636 0.3834L2.64901 0.3162L3.40186 0.0893998Z" fill="#999999"/>
</svg>
