<svg width="30" height="30" viewBox="0 0 30 30" fill="none" xmlns="http://www.w3.org/2000/svg">
<path d="M4.27437 17.4185H5.62957L9.95604 8.22499H7.41572L8.38346 4.83789H4.98372L2.6958 11.1282H5.24205L4.27437 17.4185ZM4.07804 10.1605L5.66126 5.80563H7.10011L6.13237 9.19273H8.43076L5.59104 15.2286L6.3705 10.1605H4.07804Z" fill="#3EC153"/>
<path d="M15.9677 1.93548C14.1417 1.93548 12.3677 2.28448 10.6912 2.96558C10.52 2.9273 10.3437 2.90323 10.1613 2.90323H9.67742V1.45161C9.67742 0.651411 9.02601 0 8.22581 0H4.35484C3.55464 0 2.90323 0.651411 2.90323 1.45161V2.90323H2.41935C1.08538 2.90323 0 3.98861 0 5.32258V18.871C0 20.2049 1.08538 21.2903 2.41935 21.2903H2.99371C5.13968 26.5113 10.3054 30 15.9677 30C23.705 30 30 23.7054 30 15.9677C30 8.23004 23.705 1.93548 15.9677 1.93548ZM3.87097 1.45161C3.87097 1.18512 4.08786 0.967742 4.35484 0.967742H8.22581C8.49278 0.967742 8.70968 1.18512 8.70968 1.45161V2.90323H3.87097V1.45161ZM2.41935 3.87097H10.1613C10.9615 3.87097 11.6129 4.52238 11.6129 5.32258V18.3871H0.967742V5.32258C0.967742 4.52238 1.61915 3.87097 2.41935 3.87097ZM15.4839 4.85952V6.77419H16.4516V4.85081C19.1558 4.967 21.6126 6.05171 23.4833 7.76819L22.1265 9.12484L22.8107 9.80903L24.1674 8.45214C25.8832 10.3229 26.9679 12.7796 27.0847 15.4839H25.1613V16.4516H27.0847C26.9685 19.1558 25.8838 21.6126 24.1673 23.4833L22.8106 22.1265L22.1265 22.8107L23.4833 24.1674C21.6126 25.8832 19.1558 26.9679 16.4516 27.0847V25.1613H15.4839V27.0788C12.8391 26.9628 10.3603 25.9027 8.4571 24.1626L9.80952 22.8107L9.12526 22.1265L7.77194 23.4798C7.1671 22.8218 6.63429 22.0911 6.19748 21.2903H10.1613C11.4953 21.2903 12.5806 20.2049 12.5806 18.871V5.37526C13.5211 5.07474 14.4975 4.90129 15.4839 4.85952ZM1.05683 19.3548H11.5234C11.323 19.9167 10.7907 20.3226 10.1608 20.3226H2.41935C1.78948 20.3226 1.25716 19.9167 1.05683 19.3548ZM15.9677 29.0323C10.8295 29.0323 6.13107 25.9466 4.0451 21.2903H5.11349C7.13994 25.4134 11.3618 28.0645 15.9677 28.0645C22.638 28.0645 28.0645 22.638 28.0645 15.9677C28.0645 9.29752 22.638 3.87097 15.9677 3.87097C14.7521 3.87097 13.5567 4.0621 12.4016 4.41865C12.2714 4.0973 12.0746 3.81236 11.8276 3.57683C13.1621 3.12982 14.5603 2.90232 15.9677 2.90323C23.1717 2.90323 29.0323 8.76381 29.0323 15.9677C29.0323 23.1717 23.1717 29.0323 15.9677 29.0323Z" fill="#3EC153"/>
<path d="M19.2131 18.5292L16.4516 15.7677V9.67773H15.4839V16.1684L18.5289 19.2134L19.2131 18.5292Z" fill="#3EC153"/>
</svg>
