<svg width="24" height="24" viewBox="0 0 24 24" fill="none" xmlns="http://www.w3.org/2000/svg">
<path d="M9.67102 4.13615C9.7852 2.935 10.794 2.01758 12.0005 2.01758C13.2071 2.01758 14.2158 2.935 14.33 4.13615C14.3972 4.89609 14.8307 5.57556 15.4915 5.95683C16.1523 6.3381 16.9575 6.3733 17.649 6.05115C18.7453 5.55344 20.0403 5.96879 20.6425 7.01126C21.2448 8.05373 20.9578 9.38306 19.979 10.0842C19.3547 10.5222 18.9831 11.237 18.9831 11.9997C18.9831 12.7623 19.3547 13.4771 19.979 13.9152C20.9578 14.6162 21.2448 15.9456 20.6425 16.988C20.0403 18.0305 18.7453 18.4459 17.649 17.9482C16.9575 17.626 16.1523 17.6612 15.4915 18.0425C14.8307 18.4237 14.3972 19.1032 14.33 19.8632C14.2158 21.0643 13.2071 21.9817 12.0005 21.9817C10.794 21.9817 9.7852 21.0643 9.67102 19.8632C9.60394 19.1029 9.17034 18.4232 8.50926 18.0419C7.84817 17.6606 7.04267 17.6256 6.35102 17.9482C5.25477 18.4459 3.95978 18.0305 3.35751 16.988C2.75524 15.9456 3.04227 14.6162 4.02102 13.9152C4.64532 13.4771 5.01698 12.7623 5.01698 11.9997C5.01698 11.237 4.64532 10.5222 4.02102 10.0842C3.0437 9.38275 2.75742 8.0546 3.35901 7.01286C3.96059 5.97113 5.25403 5.55524 6.35002 6.05115C7.04158 6.3733 7.84676 6.3381 8.50756 5.95683C9.16836 5.57556 9.60181 4.89609 9.66902 4.13615" stroke="#3B82F6" stroke-width="2" stroke-linecap="round" stroke-linejoin="round"/>
<path d="M9 12C9 13.6557 10.3443 15 12 15C13.6557 15 15 13.6557 15 12C15 10.3443 13.6557 9 12 9C10.3443 9 9 10.3443 9 12V12" stroke="#3B82F6" stroke-width="2" stroke-linecap="round" stroke-linejoin="round"/>
</svg>
