<svg width="25" height="25" viewBox="0 0 25 25" fill="none" xmlns="http://www.w3.org/2000/svg">
<path d="M9.53589 12.487C9.53589 13.217 9.81909 13.9006 10.3367 14.4182C10.8542 14.9333 11.5378 15.219 12.2678 15.219C12.9978 15.219 13.6814 14.9333 14.199 14.4182C14.7141 13.9006 14.9998 13.217 14.9998 12.487C14.9998 11.7571 14.7141 11.0735 14.199 10.5559C13.6814 10.0407 12.9978 9.7551 12.2678 9.7551C11.5378 9.7551 10.8542 10.0407 10.3367 10.5559C10.0819 10.8087 9.87995 11.1096 9.74249 11.4411C9.60502 11.7726 9.53479 12.1281 9.53589 12.487ZM15.2854 2.42112L13.9207 4.0178C13.4568 3.94211 12.9832 3.90305 12.512 3.90305C12.0408 3.90305 11.5647 3.94211 11.1033 4.0178L9.73853 2.42112C9.63527 2.3005 9.49774 2.21417 9.34424 2.17362C9.19073 2.13306 9.02851 2.14019 8.87915 2.19407L8.81567 2.21604C7.58689 2.65546 6.44789 3.31388 5.45386 4.1594L5.40259 4.20334C5.28187 4.30602 5.19508 4.44286 5.15368 4.59583C5.11228 4.7488 5.1182 4.91073 5.17065 5.06028L5.87622 7.0427C5.27564 7.77512 4.802 8.59055 4.47241 9.47434L2.39966 9.85764C2.24351 9.88656 2.09986 9.9623 1.98779 10.0748C1.87572 10.1873 1.80053 10.3313 1.77222 10.4875L1.76001 10.5534C1.53052 11.823 1.53052 13.1609 1.76001 14.4304L1.77222 14.4963C1.80053 14.6526 1.87572 14.7965 1.98779 14.909C2.09986 15.0215 2.24351 15.0973 2.39966 15.1262L4.48218 15.5119C4.81438 16.3874 5.28687 17.2029 5.8811 17.9265L5.17066 19.9236C5.11778 20.0731 5.11165 20.2351 5.15308 20.3882C5.1945 20.5412 5.28153 20.6781 5.40259 20.7805L5.45386 20.8244C6.44894 21.6685 7.58766 22.3267 8.81568 22.7678L8.87915 22.7898C9.18433 22.8996 9.52612 22.8093 9.73853 22.5627L11.1179 20.9465C11.5769 21.0222 12.0457 21.0588 12.5095 21.0588C12.9783 21.0588 13.447 21.0222 13.9011 20.9465L15.2805 22.5578C15.3838 22.6784 15.5213 22.7648 15.6748 22.8053C15.8283 22.8459 15.9905 22.8388 16.1399 22.7849L16.2034 22.7629C17.4314 22.321 18.5667 21.6692 19.5652 20.8196L19.6165 20.7756C19.7372 20.6729 19.824 20.5361 19.8654 20.3831C19.9068 20.2301 19.9008 20.0682 19.8484 19.9187L19.1379 17.9216C19.7361 17.1941 20.2097 16.3835 20.5369 15.5071L22.6194 15.1213C22.7755 15.0924 22.9192 15.0166 23.0313 14.9041C23.1433 14.7916 23.2185 14.6477 23.2468 14.4914L23.259 14.4255C23.4897 13.1435 23.4897 11.8306 23.259 10.5486L23.2468 10.4826C23.2185 10.3264 23.1433 10.1824 23.0313 10.0699C22.9192 9.95742 22.7755 9.88167 22.6194 9.85276L20.5466 9.46946C20.2146 8.58567 19.7434 7.77024 19.1428 7.03781L19.8484 5.05539C19.9013 4.9059 19.9074 4.74385 19.866 4.59078C19.8245 4.43772 19.7375 4.30088 19.6165 4.19846L19.5652 4.15451C18.5618 3.30491 17.4314 2.65305 16.2034 2.21115L16.1399 2.18918C15.8372 2.0842 15.4978 2.17453 15.2854 2.42112ZM16.5598 12.487C16.5598 14.8576 14.6384 16.779 12.2678 16.779C9.89722 16.779 7.97583 14.8576 7.97583 12.487C7.97583 10.1164 9.89722 8.19504 12.2678 8.19504C14.6384 8.19504 16.5598 10.1164 16.5598 12.487Z" fill="black"/>
<path d="M9.53589 12.487C9.53589 13.217 9.81909 13.9006 10.3367 14.4182C10.8542 14.9333 11.5378 15.219 12.2678 15.219C12.9978 15.219 13.6814 14.9333 14.199 14.4182C14.7141 13.9006 14.9998 13.217 14.9998 12.487C14.9998 11.7571 14.7141 11.0735 14.199 10.5559C13.6814 10.0407 12.9978 9.7551 12.2678 9.7551C11.5378 9.7551 10.8542 10.0407 10.3367 10.5559C10.0819 10.8087 9.87995 11.1096 9.74249 11.4411C9.60502 11.7726 9.53479 12.1281 9.53589 12.487ZM15.2854 2.42112L13.9207 4.0178C13.4568 3.94211 12.9832 3.90305 12.512 3.90305C12.0408 3.90305 11.5647 3.94211 11.1033 4.0178L9.73853 2.42112C9.63527 2.3005 9.49774 2.21417 9.34424 2.17362C9.19073 2.13306 9.02851 2.14019 8.87915 2.19407L8.81567 2.21604C7.58689 2.65546 6.44789 3.31388 5.45386 4.1594L5.40259 4.20334C5.28187 4.30602 5.19508 4.44286 5.15368 4.59583C5.11228 4.7488 5.1182 4.91073 5.17065 5.06028L5.87622 7.0427C5.27564 7.77512 4.802 8.59055 4.47241 9.47434L2.39966 9.85764C2.24351 9.88656 2.09986 9.9623 1.98779 10.0748C1.87572 10.1873 1.80053 10.3313 1.77222 10.4875L1.76001 10.5534C1.53052 11.823 1.53052 13.1609 1.76001 14.4304L1.77222 14.4963C1.80053 14.6526 1.87572 14.7965 1.98779 14.909C2.09986 15.0215 2.24351 15.0973 2.39966 15.1262L4.48218 15.5119C4.81438 16.3874 5.28687 17.2029 5.8811 17.9265L5.17066 19.9236C5.11778 20.0731 5.11165 20.2351 5.15308 20.3882C5.1945 20.5412 5.28153 20.6781 5.40259 20.7805L5.45386 20.8244C6.44894 21.6685 7.58766 22.3267 8.81568 22.7678L8.87915 22.7898C9.18433 22.8996 9.52612 22.8093 9.73853 22.5627L11.1179 20.9465C11.5769 21.0222 12.0457 21.0588 12.5095 21.0588C12.9783 21.0588 13.447 21.0222 13.9011 20.9465L15.2805 22.5578C15.3838 22.6784 15.5213 22.7648 15.6748 22.8053C15.8283 22.8459 15.9905 22.8388 16.1399 22.7849L16.2034 22.7629C17.4314 22.321 18.5667 21.6692 19.5652 20.8196L19.6165 20.7756C19.7372 20.6729 19.824 20.5361 19.8654 20.3831C19.9068 20.2301 19.9008 20.0682 19.8484 19.9187L19.1379 17.9216C19.7361 17.1941 20.2097 16.3835 20.5369 15.5071L22.6194 15.1213C22.7755 15.0924 22.9192 15.0166 23.0313 14.9041C23.1433 14.7916 23.2185 14.6477 23.2468 14.4914L23.259 14.4255C23.4897 13.1435 23.4897 11.8306 23.259 10.5486L23.2468 10.4826C23.2185 10.3264 23.1433 10.1824 23.0313 10.0699C22.9192 9.95742 22.7755 9.88167 22.6194 9.85276L20.5466 9.46946C20.2146 8.58567 19.7434 7.77024 19.1428 7.03781L19.8484 5.05539C19.9013 4.9059 19.9074 4.74385 19.866 4.59078C19.8245 4.43772 19.7375 4.30088 19.6165 4.19846L19.5652 4.15451C18.5618 3.30491 17.4314 2.65305 16.2034 2.21115L16.1399 2.18918C15.8372 2.0842 15.4978 2.17453 15.2854 2.42112ZM16.5598 12.487C16.5598 14.8576 14.6384 16.779 12.2678 16.779C9.89722 16.779 7.97583 14.8576 7.97583 12.487C7.97583 10.1164 9.89722 8.19504 12.2678 8.19504C14.6384 8.19504 16.5598 10.1164 16.5598 12.487Z" fill="url(#paint0_linear_137_2949)"/>
<defs>
<linearGradient id="paint0_linear_137_2949" x1="1.58789" y1="22.8359" x2="2.35364" y2="1.39333" gradientUnits="userSpaceOnUse">
<stop stop-color="#3AC34B"/>
<stop offset="1" stop-color="#0BB2C3"/>
</linearGradient>
</defs>
</svg>
