<svg width="24" height="24" viewBox="0 0 24 24" fill="none" xmlns="http://www.w3.org/2000/svg">
  <path d="M9.7 3.6c.1-1 1.1-1.8 2.3-1.8s2.2.8 2.3 1.8c.1.8.9 1.3 1.6 1 .9-.4 2 .1 2.6 1.1.6 1 .4 2.2-.5 2.8-.7.4-.7 1.5 0 2 .9.6 1.1 1.8.5 2.8-.6 1-1.7 1.5-2.6 1.1-.7-.3-1.5.2-1.6 1-.1 1-1.1 1.8-2.3 1.8s-2.2-.8-2.3-1.8c-.1-.8-.9-1.3-1.6-1-.9.4-2-.1-2.6-1.1-.6-1-.4-2.2.5-2.8.7-.5.7-1.6 0-2-.9-.6-1.1-1.8-.5-2.8.6-1 1.7-1.5 2.6-1.1.7.3 1.5-.2 1.6-1Z" transform="translate(0 2.4)" stroke="currentColor" stroke-width="1.7" stroke-linecap="round" stroke-linejoin="round"/>
  <circle cx="12" cy="12" r="3" stroke="currentColor" stroke-width="1.7"/>
</svg>
